<svg xmlns="http://www.w3.org/2000/svg" viewBox="0 0 512 512" width="512" height="512">
    <defs>
        <linearGradient id="grad1" x1="0%" y1="0%" x2="100%" y2="100%">
            <stop offset="0%" style="stop-color:#25c2a0;stop-opacity:1" />
            <stop offset="100%" style="stop-color:#4fddbf;stop-opacity:1" />
        </linearGradient>
    </defs>

    <path
        d="M140 120 C 110 120, 100 130, 100 160 L 100 230 C 100 250, 80 256, 60 256 C 80 256, 100 262, 100 282 L 100 352 C 100 382, 110 392, 140 392"
        fill="none" stroke="#FFFFFF" stroke-width="32" stroke-linecap="round" />

    <path
        d="M372 120 C 402 120, 412 130, 412 160 L 412 230 C 412 250, 432 256, 452 256 C 432 256, 412 262, 412 282 L 412 352 C 412 382, 402 392, 372 392"
        fill="none" stroke="#FFFFFF" stroke-width="32" stroke-linecap="round" />

    <rect x="170" y="320" width="172" height="30" rx="10" fill="#FFFFFF" opacity="0.2" />
    <rect x="170" y="241" width="172" height="30" rx="10" fill="#FFFFFF" opacity="0.4" />

    <rect x="170" y="162" width="172" height="30" rx="10" fill="url(#grad1)" />

    <path d="M256 100 L 256 145" stroke="url(#grad1)" stroke-width="12" stroke-linecap="round" />
    <path d="M240 135 L 256 150 L 272 135" fill="none" stroke="url(#grad1)" stroke-width="12"
        stroke-linecap="round" stroke-linejoin="round" />
</svg>